# xmcd
#
# Track frame offsets:
# 150
# 15326
# 27180
# 37615
# 48027
# 59326
# 73017
# 90340
# 109433
# 133461
# 144706
# 157080
# 170851
# 182275
# 192368
# 207215
# 220894
# 234524
#
# Disc length: 3300 seconds
#
#
# Revision: 0
# Processed by: cddbd v1.4PL0 Copyright (c) Steve Scherf et al.
# Submitted via: FreeRIP 2.51 
#
DISCID=fb0ce212
DTITLE=Lambert Hendricks and Ross Trio - The Best Of The  Best!
DYEAR=1900
DGENRE=Vocal
TTITLE0=Charleston Alley
TTITLE1=Moanin'
TTITLE2=Twisted
TTITLE3=Cloudburst
TTITLE4=Centerpiece
TTITLE5=Gimme That Wine
TTITLE6=Sermonette
TTITLE7=Everybody's Boppin'
TTITLE8=Everyday I Have the Blues
TTITLE9=It's Sand, Man!
TTITLE10=Two For the Blues
TTITLE11=One O'Clock Jump
TTITLE12=Little Pony
TTITLE13=Down For the Double
TTITLE14=Fiesta In Blue
TTITLE15=Down For the Count
TTITLE16=Blues Backstage
TTITLE17=Avenue C
EXTD=Remastering from original LPs
EXTT0=
EXTT1=
EXTT2=
EXTT3=
EXTT4=
EXTT5=
EXTT6=
EXTT7=
EXTT8=
EXTT9=
EXTT10=
EXTT11=
EXTT12=
EXTT13=
EXTT14=
EXTT15=
EXTT16=
EXTT17=
PLAYORDER=
